0
SECTION
2
HEADER
9
$ACADVER
1
AC1006
0
ENDSEC
999
Шифр: Z.007  Название: Бок прав.  Материал: DSP-18MM_K  Количество  dxf-файлов: 1
0
SECTION
2
ENTITIES
0
CIRCLE
5
002B
100
AcDbEntity
8
BV_3
100
AcDbCircle
10
135.00
20
52.00
30
0.00
40
1.50
0
CIRCLE
5
002C
100
AcDbEntity
8
BV_3
100
AcDbCircle
10
135.00
20
148.00
30
0.00
40
1.50
0
CIRCLE
5
002D
100
AcDbEntity
8
BV_3
100
AcDbCircle
10
135.00
20
372.00
30
0.00
40
1.50
0
CIRCLE
5
002E
100
AcDbEntity
8
BV_3
100
AcDbCircle
10
317.00
20
52.00
30
0.00
40
1.50
0
CIRCLE
5
002F
100
AcDbEntity
8
BV_3
100
AcDbCircle
10
317.00
20
148.00
30
0.00
40
1.50
0
CIRCLE
5
0030
100
AcDbEntity
8
BV_3
100
AcDbCircle
10
317.00
20
372.00
30
0.00
40
1.50
0
CIRCLE
5
0031
100
AcDbEntity
8
BV_3
100
AcDbCircle
10
499.00
20
52.00
30
0.00
40
1.50
0
CIRCLE
5
0032
100
AcDbEntity
8
BV_3
100
AcDbCircle
10
499.00
20
148.00
30
0.00
40
1.50
0
CIRCLE
5
0033
100
AcDbEntity
8
BV_3
100
AcDbCircle
10
499.00
20
372.00
30
0.00
40
1.50
0
CIRCLE
5
0034
100
AcDbEntity
8
BV_3
100
AcDbCircle
10
681.00
20
52.00
30
0.00
40
1.50
0
CIRCLE
5
0035
100
AcDbEntity
8
BV_3
100
AcDbCircle
10
681.00
20
148.00
30
0.00
40
1.50
0
CIRCLE
5
0036
100
AcDbEntity
8
BV_3
100
AcDbCircle
10
681.00
20
372.00
30
0.00
40
1.50
0
CIRCLE
5
0037
100
AcDbEntity
8
BV_3
100
AcDbCircle
10
863.00
20
52.00
30
0.00
40
1.50
0
CIRCLE
5
0038
100
AcDbEntity
8
BV_3
100
AcDbCircle
10
863.00
20
148.00
30
0.00
40
1.50
0
CIRCLE
5
0039
100
AcDbEntity
8
BV_3
100
AcDbCircle
10
863.00
20
372.00
30
0.00
40
1.50
0
CIRCLE
5
003A
100
AcDbEntity
8
BV_3
100
AcDbCircle
10
1045.00
20
52.00
30
0.00
40
1.50
0
CIRCLE
5
003B
100
AcDbEntity
8
BV_3
100
AcDbCircle
10
1045.00
20
148.00
30
0.00
40
1.50
0
CIRCLE
5
003C
100
AcDbEntity
8
BV_3
100
AcDbCircle
10
1045.00
20
372.00
30
0.00
40
1.50
0
CIRCLE
5
003D
100
AcDbEntity
8
BV_12
100
AcDbCircle
10
1083.00
20
61.00
30
0.00
40
2.50
0
CIRCLE
5
003E
100
AcDbEntity
8
BV_12
100
AcDbCircle
10
1083.00
20
349.00
30
0.00
40
2.50
0
CIRCLE
5
003F
100
AcDbEntity
8
BV_13
100
AcDbCircle
10
1083.00
20
93.00
30
0.00
40
4.00
0
CIRCLE
5
0040
100
AcDbEntity
8
BV_13
100
AcDbCircle
10
1083.00
20
317.00
30
0.00
40
4.00
0
CIRCLE
5
0041
100
AcDbEntity
8
BV_12
100
AcDbCircle
10
1155.00
20
391.00
30
0.00
40
2.50
0
CIRCLE
5
0042
100
AcDbEntity
8
BV_13
100
AcDbCircle
10
1129.00
20
391.00
30
0.00
40
4.00
0
CIRCLE
5
0043
100
AcDbEntity
8
BV_12
100
AcDbCircle
10
9.00
20
37.00
30
0.00
40
2.50
0
CIRCLE
5
0044
100
AcDbEntity
8
BV_13
100
AcDbCircle
10
9.00
20
63.00
30
0.00
40
4.00
0
CIRCLE
5
0045
100
AcDbEntity
8
BV_14
100
AcDbCircle
10
34.00
20
378.00
30
0.00
40
7.50
0
CIRCLE
5
0046
100
AcDbEntity
8
BV_14
100
AcDbCircle
10
34.00
20
90.00
30
0.00
40
7.50
0
LINE
5
0047
100
AcDbEntity
8
BH_9.0_SIDE=1_BHX=122.00_BHDP=25.00_BHDIA=8.00
100
AcDbLine
10
0.00
20
126.00
30
0.0
11
25.00
21
126.00
31
0.0
0
LINE
5
0048
100
AcDbEntity
8
BH_9.0
100
AcDbLine
10
25.00
20
118.00
30
0.0
11
0.00
21
118.00
31
0.0
0
LINE
5
0049
100
AcDbEntity
8
BH_9.0_SIDE=1_BHX=346.00_BHDP=25.00_BHDIA=8.00
100
AcDbLine
10
0.00
20
350.00
30
0.0
11
25.00
21
350.00
31
0.0
0
LINE
5
004A
100
AcDbEntity
8
BH_9.0
100
AcDbLine
10
25.00
20
342.00
30
0.0
11
0.00
21
342.00
31
0.0
0
LINE
5
004B
100
AcDbEntity
8
BH_9.0_SIDE=1_BHX=378.00_BHDP=34.00_BHDIA=8.00
100
AcDbLine
10
0.00
20
382.00
30
0.0
11
34.00
21
382.00
31
0.0
0
LINE
5
004C
100
AcDbEntity
8
BH_9.0
100
AcDbLine
10
34.00
20
374.00
30
0.0
11
0.00
21
374.00
31
0.0
0
LINE
5
004D
100
AcDbEntity
8
BH_9.0_SIDE=1_BHX=90.00_BHDP=34.00_BHDIA=8.00
100
AcDbLine
10
0.00
20
94.00
30
0.0
11
34.00
21
94.00
31
0.0
0
LINE
5
004E
100
AcDbEntity
8
BH_9.0
100
AcDbLine
10
34.00
20
86.00
30
0.0
11
0.00
21
86.00
31
0.0
0
POLYLINE
5
004F
100
AcDbEntity
66
1
8
ML_20MM17.0T128
100
AcDb2dPolyline
10
 0.0
20
 0.0
0
VERTEX
5
0050
100
AcDbEntity
8
ML_20MM17.0T128
100
AcDbVertex
100
AcDb2dVertex
10
1192.00
20
30.00
0
VERTEX
5
0051
100
AcDbEntity
8
ML_20MM17.0T128
100
AcDbVertex
100
AcDb2dVertex
10
1132.00
20
0.00
0
SEQEND
5
0052
100
AcDbEntity
8
ML_20MM17.0T128
0
POLYLINE
5
0053
100
AcDbEntity
66
1
8
Z_18.0
100
AcDb2dPolyline
10
 0.0
20
 0.0
70
 1
0
VERTEX
5
0054
100
AcDbEntity
8
Z_18.0
100
AcDbVertex
100
AcDb2dVertex
10
0.0
20
0.0
0
VERTEX
5
0055
100
AcDbEntity
8
Z_18.0
100
AcDbVertex
100
AcDb2dVertex
10
0.0
20
410.00
0
VERTEX
5
0056
100
AcDbEntity
8
Z_18.0
100
AcDbVertex
100
AcDb2dVertex
10
1192.00
20
410.00
0
VERTEX
5
0057
100
AcDbEntity
8
Z_18.0
100
AcDbVertex
100
AcDb2dVertex
10
1192.00
20
0.0
0
SEQEND
5
0058
100
AcDbEntity
8
Z_18.0
0
ENDSEC
0
EOF